PathFileType	4	(X/Y/Z)	C:\Users\86182\Documents\cortex\Trimmed_M3_H8.trc
DataRate	CameraRate	NumFrames	NumMarkers	Units	OrigDataRate	OrigDataStartFrame	OrigNumFrames
100.00	100.00	       56	2	mm	100.00	721	       901
Frame#	Time	gripper			box			
		X1	Y1	Z1	X2	Y2	Z2	

721	7.200	267.77994	173.08560	291.99127	267.49850	170.76622	155.56384	
722	7.210	267.77795	173.08681	291.99109	267.49811	170.76704	155.56342	
723	7.220	267.77151	173.08806	291.99387	267.49942	170.76640	155.56445	
724	7.230	267.76120	173.08894	291.99921	267.50214	170.76425	155.56673	
725	7.240	267.74792	173.08911	292.00632	267.50580	170.76079	155.56979	
726	7.250	267.73361	173.08849	292.01404	267.50989	170.75624	155.57318	
727	7.260	267.72116	173.08720	292.02100	267.51395	170.75114	155.57651	
728	7.270	267.71368	173.08540	292.02567	267.51743	170.74631	155.57927	
729	7.280	267.71365	173.08319	292.02707	267.51953	170.74278	155.58086	
730	7.290	267.72180	173.08076	292.02487	267.51959	170.74136	155.58083	
731	7.300	267.73697	173.07837	292.01947	267.51758	170.74210	155.57916	
732	7.310	267.75671	173.07623	292.01181	267.51410	170.74443	155.57635	
733	7.320	267.77762	173.07466	292.00330	267.51010	170.74765	155.57314	
734	7.330	267.79608	173.07399	291.99548	267.50641	170.75117	155.57021	
735	7.340	267.80899	173.07440	291.98981	267.50354	170.75458	155.56801	
736	7.350	267.81418	173.07597	291.98709	267.50180	170.75754	155.56673	
737	7.360	267.81100	173.07855	291.98758	267.50110	170.75981	155.56628	
738	7.370	267.79990	173.08182	291.99118	267.50122	170.76131	155.56644	
739	7.380	267.78253	173.08531	291.99734	267.50186	170.76210	155.56700	
740	7.390	267.76141	173.08853	292.00525	267.50272	170.76236	155.56773	
741	7.400	267.73969	173.09116	292.01379	267.50360	170.76224	155.56851	
742	7.410	267.72031	173.09302	292.02176	267.50427	170.76186	155.56920	
743	7.420	267.70584	173.09409	292.02802	267.50455	170.76129	155.56963	
744	7.430	267.69812	173.09430	292.03168	267.50439	170.76071	155.56969	
745	7.440	267.69788	173.09357	292.03210	267.50406	170.76027	155.56952	
746	7.450	267.70490	173.09186	292.02924	267.50397	170.76003	155.56946	
747	7.460	267.71835	173.08929	292.02344	267.50443	170.75995	155.56970	
748	7.470	267.73697	173.08611	292.01544	267.50522	170.75992	155.57014	
749	7.480	267.75861	173.08257	292.00623	267.50598	170.75970	155.57051	
750	7.490	267.77988	173.07895	291.99716	267.50650	170.75920	155.57065	
751	7.500	267.79736	173.07567	291.98975	267.50677	170.75839	155.57057	
752	7.510	267.80872	173.07306	291.98495	267.50687	170.75735	155.57042	
753	7.520	267.81284	173.07133	291.98334	267.50677	170.75612	155.57033	
754	7.530	267.80963	173.07065	291.98502	267.50662	170.75475	155.57050	
755	7.540	267.80008	173.07111	291.98962	267.50665	170.75346	155.57106	
756	7.550	267.78598	173.07268	291.99637	267.50705	170.75253	155.57202	
757	7.560	267.76953	173.07518	292.00421	267.50766	170.75214	155.57309	
758	7.570	267.75299	173.07817	292.01193	267.50809	170.75240	155.57391	
759	7.580	267.73871	173.08102	292.01831	267.50803	170.75330	155.57410	
760	7.590	267.72894	173.08313	292.02222	267.50739	170.75478	155.57358	
761	7.600	267.72534	173.08412	292.02292	267.50635	170.75662	155.57254	
762	7.610	267.72842	173.08411	292.02032	267.50516	170.75874	155.57121	
763	7.620	267.73737	173.08340	292.01508	267.50400	170.76099	155.56978	
764	7.630	267.75024	173.08232	292.00818	267.50284	170.76312	155.56833	
765	7.640	267.76443	173.08092	292.00104	267.50177	170.76482	155.56700	
766	7.650	267.77719	173.07939	291.99503	267.50095	170.76581	155.56593	
767	7.660	267.78616	173.07811	291.99142	267.50034	170.76593	155.56516	
768	7.670	267.78992	173.07735	291.99078	267.50015	170.76508	155.56474	
769	7.680	267.78851	173.07715	291.99289	267.50070	170.76321	155.56502	
770	7.690	267.78317	173.07744	291.99689	267.50247	170.76036	155.56627	
771	7.700	267.77588	173.07802	292.00162	267.50558	170.75668	155.56859	
772	7.710	267.76871	173.07861	292.00586	267.50967	170.75247	155.57172	
773	7.720	267.76324	173.07880	292.00879	267.51413	170.74811	155.57512	
774	7.730	267.76016	173.07841	292.00998	267.51807	170.74419	155.57811	
775	7.740	267.75958	173.07774	292.00949	267.52054	170.74144	155.57997	
776	7.750	267.76147	173.07721	292.00763	267.52090	170.74052	155.58023	
